<svg xmlns="http://www.w3.org/2000/svg" width="23.906" height="23.875" viewBox="0 0 23.906 23.875">
  <defs>
    <style>
      .cls-1 {
        fill: #a7a7a7;
        fill-rule: evenodd;
      }
    </style>
  </defs>
  <path id="search.svg" class="cls-1" d="M842.058,428.962l-0.145-.144h0l-5.759-5.759a9.465,9.465,0,0,0-8.129-14.211h-0.063a9.466,9.466,0,0,0-.059,18.932h0.062a9.424,9.424,0,0,0,4.767-1.289l5.754,5.754h0l0.144,0.144a1.114,1.114,0,0,0,1.576,0l1.851-1.85A1.116,1.116,0,0,0,842.058,428.962Zm-9.123-5.645a7,7,0,0,1-4.969,2.049H827.92a7.052,7.052,0,0,1,.043-14.1h0.047A7.052,7.052,0,0,1,832.935,423.317Z" transform="translate(-818.5 -408.844)"/>
</svg>
